<?xml version="1.0" standalone="no"?>
<!DOCTYPE svg PUBLIC "-//W3C//DTD SVG 20010904//EN"
 "http://www.w3.org/TR/2001/REC-SVG-20010904/DTD/svg10.dtd">
<svg version="1.0" xmlns="http://www.w3.org/2000/svg"
 width="176.000000pt" height="176.000000pt" viewBox="0 0 176.000000 176.000000"
 preserveAspectRatio="xMidYMid meet">

<g transform="translate(0.000000,176.000000) scale(0.100000,-0.100000)"
fill="#000000" stroke="none">
<path d="M0 880 c0 -484 3 -880 8 -880 4 0 96 178 205 395 l197 395 -65 0
c-36 0 -65 2 -65 5 0 3 63 131 140 285 l140 280 -80 0 c-44 0 -80 2 -80 5 0 3
43 91 95 195 52 104 95 192 95 195 0 3 -133 5 -295 5 l-295 0 0 -880z"/>
<path d="M1575 1550 l-180 -180 85 0 85 0 -210 -210 -210 -210 70 0 70 0 -475
-475 -475 -475 713 0 712 0 0 865 c0 476 -1 865 -3 865 -1 0 -83 -81 -182
-180z"/>
</g>
</svg>
